<svg width="128" height="128" viewBox="0 0 128 128" fill="none" xmlns="http://www.w3.org/2000/svg">
<circle cx="64" cy="64" r="64" fill="white"/>
<path d="M61.0457 78.3212C58.0337 75.0232 48.2227 79.5054 41.0939 87.8035C39.651 89.4831 36.9901 89.6129 35.5842 87.9046C34.5093 86.5985 34.5901 84.6907 35.8816 83.5962C43.6371 77.0238 60.3907 67.2968 65.8514 72.3922C70.5992 76.8223 65.8067 87.1739 60.209 95.9559C56.8428 101.237 58.5427 108.423 64.7642 109.093C82.277 110.977 102.421 101.408 107.917 93.3174C109.015 91.7011 111.083 90.4144 112.943 91.0051C114.722 91.57 115.599 93.5877 114.632 95.1863C101.886 116.254 69.6886 118.678 55.7476 115.179C41.2745 110.9 46.8562 103.785 47.5439 102.837C50.9408 98.1554 63.9065 81.4538 61.0457 78.3212Z" fill="url(#paint0_linear)"/>
<path fill-rule="evenodd" clip-rule="evenodd" d="M15.8906 97.4269H28.4024L37.1148 73.3366L39.0821 67.9252C43.3216 69.4014 48.1141 69.1976 52.1518 64.6757C58.964 57.0465 64.9166 51.7141 68.6781 52.9896L76.0257 73.3366L85.0001 97.4269H97.6429L61.9418 4.41357H51.5262L15.8906 97.4269ZM65.8604 45.187L56.6358 19.6423L42.2357 59.2509C44.6555 59.0923 46.9436 58.0462 48.6999 56.1938C55.1066 49.4364 60.1192 45.9582 65.8604 45.187Z" fill="url(#paint1_linear)"/>
<path d="M84.8971 18.9048L79.3571 32.8301H65.5072L76.5871 42.5778L72.4322 57.8956L84.8971 48.1479L97.3621 57.8956L93.2071 42.5778L104.287 32.8301H90.4371L84.8971 18.9048Z" fill="url(#paint2_linear)"/>
<defs>
<linearGradient id="paint0_linear" x1="63.6201" y1="75.81" x2="32.001" y2="125.715" gradientUnits="userSpaceOnUse">
<stop stop-color="#03DAC5"/>
<stop offset="1" stop-color="#6200EE"/>
</linearGradient>
<linearGradient id="paint1_linear" x1="56.7668" y1="4.41357" x2="56.7668" y2="97.4269" gradientUnits="userSpaceOnUse">
<stop stop-color="#BB86FC"/>
<stop offset="1" stop-color="#6200EE"/>
</linearGradient>
<linearGradient id="paint2_linear" x1="92.1904" y1="20.9509" x2="74.2856" y2="54.0938" gradientUnits="userSpaceOnUse">
<stop offset="0.380208" stop-color="#03DAC5"/>
<stop offset="1" stop-color="#6200EE"/>
</linearGradient>
</defs>
</svg>
