<svg width="600" height="650" viewBox="0 0 600 650" fill="none" xmlns="http://www.w3.org/2000/svg">
<path fill-rule="evenodd" clip-rule="evenodd" d="M191.867 595.635L198.493 601.172L196.734 590.737L202.588 583.716L194.879 582.81L191.867 572.969L188.854 582.81L181.145 583.716L186.999 590.737L185.24 601.172L191.867 595.635Z" fill="#017374"/>
<path fill-rule="evenodd" clip-rule="evenodd" d="M244.089 595.635L250.715 601.172L248.957 590.737L254.811 583.716L247.102 582.81L244.089 572.969L241.076 582.81L233.367 583.716L239.221 590.737L237.463 601.172L244.089 595.635Z" fill="#017374"/>
<path fill-rule="evenodd" clip-rule="evenodd" d="M297.068 595.635L303.694 601.172L301.935 590.737L307.79 583.716L300.081 582.81L297.068 572.969L294.055 582.81L286.346 583.716L292.2 590.737L290.442 601.172L297.068 595.635Z" fill="#017374"/>
<path fill-rule="evenodd" clip-rule="evenodd" d="M360.012 583.716L352.303 582.795L349.29 572.969L346.277 582.81L338.568 583.716L344.423 590.737L342.664 601.172L349.29 595.635L355.917 601.172L354.169 590.737L360.012 583.716ZM349.29 592.859V579.055L351.124 585.052L355.82 585.616L352.26 589.891L353.333 596.244L349.29 592.859Z" fill="#017374"/>
<path fill-rule="evenodd" clip-rule="evenodd" d="M412.992 583.716L405.283 582.795L402.27 572.969L399.257 582.81L391.548 583.716L397.402 590.737L395.644 601.172L402.27 595.635L408.896 601.172L407.148 590.737L412.992 583.716ZM402.27 592.859L398.238 596.229L399.311 589.876L395.751 585.601L400.447 585.037L402.27 579.055L404.103 585.052L408.8 585.616L405.24 589.891L406.312 596.244L402.27 592.859Z" fill="#017374"/>
<g filter="url(#filter0_ddd)">
<rect x="234" y="487.862" width="125" height="48" rx="24" fill="#017374"/>
</g>
<path d="M272.214 514.437C272.214 513.999 272.059 513.662 271.749 513.425C271.444 513.188 270.89 512.949 270.088 512.707C269.286 512.465 268.648 512.197 268.174 511.9C267.267 511.331 266.813 510.588 266.813 509.672C266.813 508.87 267.139 508.209 267.791 507.689C268.447 507.17 269.297 506.91 270.341 506.91C271.034 506.91 271.651 507.038 272.193 507.293C272.736 507.548 273.162 507.913 273.472 508.387C273.782 508.856 273.937 509.378 273.937 509.952H272.214C272.214 509.433 272.05 509.027 271.722 508.735C271.398 508.439 270.933 508.291 270.327 508.291C269.762 508.291 269.322 508.412 269.008 508.653C268.698 508.895 268.543 509.232 268.543 509.665C268.543 510.03 268.712 510.335 269.049 510.581C269.386 510.823 269.942 511.06 270.717 511.292C271.492 511.52 272.114 511.782 272.583 512.078C273.052 512.37 273.396 512.707 273.615 513.09C273.834 513.468 273.943 513.912 273.943 514.423C273.943 515.252 273.624 515.913 272.986 516.405C272.353 516.893 271.492 517.137 270.402 517.137C269.682 517.137 269.019 517.005 268.413 516.74C267.812 516.471 267.342 516.102 267.005 515.633C266.672 515.163 266.506 514.617 266.506 513.992H268.235C268.235 514.557 268.422 514.995 268.796 515.305C269.17 515.615 269.705 515.77 270.402 515.77C271.004 515.77 271.455 515.649 271.756 515.407C272.061 515.161 272.214 514.838 272.214 514.437ZM282.528 512.557H278.44V515.619H283.219V517H276.711V507.047H283.171V508.441H278.44V511.189H282.528V512.557ZM291.448 514.683H287.593L286.786 517H284.988L288.748 507.047H290.3L294.066 517H292.262L291.448 514.683ZM288.078 513.288H290.963L289.521 509.159L288.078 513.288ZM300.108 513.165H298.181V517H296.451V507.047H299.951C301.1 507.047 301.986 507.304 302.61 507.819C303.235 508.334 303.547 509.079 303.547 510.055C303.547 510.72 303.385 511.278 303.062 511.729C302.743 512.176 302.296 512.52 301.722 512.762L303.957 516.911V517H302.104L300.108 513.165ZM298.181 511.777H299.958C300.541 511.777 300.997 511.632 301.325 511.34C301.653 511.044 301.817 510.64 301.817 510.13C301.817 509.597 301.665 509.184 301.359 508.893C301.059 508.601 300.607 508.451 300.006 508.441H298.181V511.777ZM314.032 513.76C313.932 514.822 313.54 515.651 312.856 516.248C312.173 516.84 311.264 517.137 310.129 517.137C309.336 517.137 308.636 516.95 308.03 516.576C307.429 516.198 306.964 515.662 306.636 514.97C306.308 514.277 306.137 513.473 306.123 512.557V511.627C306.123 510.688 306.289 509.861 306.622 509.146C306.955 508.43 307.431 507.879 308.051 507.491C308.675 507.104 309.395 506.91 310.211 506.91C311.309 506.91 312.193 507.209 312.863 507.806C313.533 508.403 313.923 509.246 314.032 510.335H312.31C312.228 509.619 312.018 509.104 311.681 508.79C311.348 508.471 310.858 508.312 310.211 508.312C309.459 508.312 308.88 508.587 308.475 509.139C308.074 509.686 307.868 510.49 307.859 511.552V512.434C307.859 513.509 308.051 514.329 308.434 514.895C308.821 515.46 309.386 515.742 310.129 515.742C310.808 515.742 311.318 515.59 311.66 515.284C312.002 514.979 312.218 514.471 312.31 513.76H314.032ZM324.736 517H323.014V512.577H318.563V517H316.834V507.047H318.563V511.189H323.014V507.047H324.736V517Z" fill="white"/>
<circle cx="294.07" cy="314.633" r="97.2344" fill="white" stroke="black"/>
<circle cx="294.07" cy="314.633" r="52.125" fill="#017374"/>
<path d="M284.641 314.01L285.181 308.992H290.526V310.428H286.562L286.288 312.807C286.748 312.542 287.268 312.41 287.847 312.41C288.795 312.41 289.531 312.713 290.055 313.319C290.583 313.925 290.848 314.741 290.848 315.767C290.848 316.778 290.556 317.585 289.973 318.187C289.389 318.784 288.59 319.082 287.573 319.082C286.662 319.082 285.905 318.825 285.304 318.31C284.707 317.79 284.383 317.106 284.333 316.259H285.939C286.003 316.742 286.176 317.113 286.459 317.373C286.742 317.628 287.111 317.756 287.566 317.756C288.077 317.756 288.473 317.574 288.756 317.209C289.043 316.844 289.187 316.348 289.187 315.719C289.187 315.113 289.029 314.634 288.715 314.283C288.4 313.928 287.967 313.75 287.416 313.75C287.115 313.75 286.86 313.791 286.65 313.873C286.441 313.951 286.213 314.105 285.967 314.338L284.641 314.01ZM294.545 317.195C294.855 317.195 295.094 317.284 295.263 317.462C295.431 317.635 295.516 317.854 295.516 318.118C295.516 318.378 295.431 318.594 295.263 318.768C295.094 318.936 294.855 319.021 294.545 319.021C294.249 319.021 294.014 318.936 293.841 318.768C293.668 318.599 293.581 318.382 293.581 318.118C293.581 317.854 293.665 317.635 293.834 317.462C294.003 317.284 294.24 317.195 294.545 317.195ZM303.731 308.944V310.318H303.526C302.597 310.332 301.854 310.587 301.298 311.084C300.742 311.581 300.411 312.285 300.307 313.196C300.84 312.636 301.521 312.355 302.351 312.355C303.23 312.355 303.923 312.665 304.429 313.285C304.939 313.905 305.194 314.705 305.194 315.685C305.194 316.696 304.896 317.517 304.299 318.146C303.706 318.77 302.927 319.082 301.961 319.082C300.967 319.082 300.161 318.715 299.541 317.981C298.926 317.248 298.618 316.286 298.618 315.097V314.529C298.618 312.784 299.042 311.417 299.89 310.428C300.742 309.439 301.965 308.944 303.561 308.944H303.731ZM301.947 313.695C301.583 313.695 301.248 313.798 300.942 314.003C300.642 314.208 300.421 314.481 300.279 314.823V315.329C300.279 316.067 300.434 316.655 300.744 317.093C301.054 317.526 301.455 317.742 301.947 317.742C302.439 317.742 302.829 317.558 303.116 317.188C303.403 316.819 303.547 316.334 303.547 315.732C303.547 315.131 303.401 314.641 303.109 314.263C302.818 313.884 302.43 313.695 301.947 313.695Z" fill="white"/>
<circle cx="299.5" cy="113.734" r="97.7344" fill="#6200EE"/>
<ellipse cx="300.043" cy="113.734" rx="54.8398" ry="57.5547" fill="white"/>
<path d="M296.25 109.017L292.271 118.047H290.528L294.5 109.427H289.353V108.094H296.25V109.017ZM299.975 116.297C300.285 116.297 300.524 116.386 300.692 116.563C300.861 116.737 300.945 116.955 300.945 117.22C300.945 117.479 300.861 117.696 300.692 117.869C300.524 118.038 300.285 118.122 299.975 118.122C299.678 118.122 299.444 118.038 299.271 117.869C299.097 117.701 299.011 117.484 299.011 117.22C299.011 116.955 299.095 116.737 299.264 116.563C299.432 116.386 299.669 116.297 299.975 116.297ZM309.161 108.046V109.42H308.956C308.026 109.434 307.284 109.689 306.728 110.186C306.172 110.682 305.841 111.386 305.736 112.298C306.27 111.737 306.951 111.457 307.78 111.457C308.66 111.457 309.353 111.767 309.858 112.387C310.369 113.007 310.624 113.806 310.624 114.786C310.624 115.798 310.326 116.618 309.729 117.247C309.136 117.871 308.357 118.184 307.391 118.184C306.397 118.184 305.59 117.817 304.971 117.083C304.355 116.349 304.048 115.388 304.048 114.198V113.631C304.048 111.885 304.472 110.518 305.319 109.529C306.172 108.54 307.395 108.046 308.99 108.046H309.161ZM307.377 112.797C307.012 112.797 306.677 112.899 306.372 113.104C306.071 113.31 305.85 113.583 305.709 113.925V114.431C305.709 115.169 305.864 115.757 306.174 116.194C306.484 116.627 306.885 116.844 307.377 116.844C307.869 116.844 308.259 116.659 308.546 116.29C308.833 115.921 308.977 115.436 308.977 114.834C308.977 114.232 308.831 113.743 308.539 113.364C308.247 112.986 307.86 112.797 307.377 112.797Z" fill="black"/>
<circle cx="410.266" cy="221.242" r="97.7344" fill="#BB86FC"/>
<ellipse cx="410.809" cy="221.242" rx="54.8398" ry="57.5547" fill="white"/>
<path d="M407.963 229.555H400.51V228.516L404.448 224.141C405.031 223.479 405.432 222.943 405.651 222.531C405.875 222.115 405.987 221.685 405.987 221.242C405.987 220.648 405.807 220.161 405.448 219.781C405.088 219.401 404.609 219.211 404.01 219.211C403.291 219.211 402.732 219.417 402.33 219.828C401.935 220.234 401.737 220.802 401.737 221.531H400.291C400.291 220.484 400.627 219.638 401.299 218.992C401.976 218.346 402.88 218.023 404.01 218.023C405.067 218.023 405.903 218.302 406.518 218.859C407.133 219.411 407.44 220.148 407.44 221.07C407.44 222.19 406.726 223.523 405.299 225.07L402.252 228.375H407.963V229.555ZM409.824 228.797C409.824 228.547 409.897 228.339 410.043 228.172C410.194 228.005 410.418 227.922 410.715 227.922C411.012 227.922 411.236 228.005 411.387 228.172C411.543 228.339 411.621 228.547 411.621 228.797C411.621 229.036 411.543 229.237 411.387 229.398C411.236 229.56 411.012 229.641 410.715 229.641C410.418 229.641 410.194 229.56 410.043 229.398C409.897 229.237 409.824 229.036 409.824 228.797ZM419.685 218.172V219.398H419.42C418.295 219.419 417.399 219.753 416.732 220.398C416.065 221.044 415.68 221.953 415.576 223.125C416.175 222.438 416.992 222.094 418.029 222.094C419.018 222.094 419.808 222.443 420.396 223.141C420.99 223.839 421.287 224.74 421.287 225.844C421.287 227.016 420.966 227.953 420.326 228.656C419.69 229.359 418.836 229.711 417.763 229.711C416.675 229.711 415.792 229.294 415.115 228.461C414.438 227.622 414.099 226.544 414.099 225.227V224.672C414.099 222.578 414.545 220.979 415.435 219.875C416.331 218.766 417.662 218.198 419.427 218.172H419.685ZM417.787 223.297C417.292 223.297 416.836 223.445 416.42 223.742C416.003 224.039 415.714 224.411 415.552 224.859V225.391C415.552 226.328 415.763 227.083 416.185 227.656C416.607 228.229 417.133 228.516 417.763 228.516C418.414 228.516 418.925 228.276 419.295 227.797C419.67 227.318 419.857 226.69 419.857 225.914C419.857 225.133 419.667 224.503 419.287 224.023C418.912 223.539 418.412 223.297 417.787 223.297Z" fill="#B60B29"/>
<path d="M366.98 192.831H363.125L362.318 195.148H360.521L364.28 185.195H365.832L369.599 195.148H367.794L366.98 192.831ZM363.61 191.437H366.495L365.053 187.308L363.61 191.437ZM379.428 191.908C379.327 192.97 378.936 193.799 378.252 194.396C377.568 194.989 376.659 195.285 375.524 195.285C374.731 195.285 374.032 195.098 373.426 194.725C372.824 194.346 372.359 193.811 372.031 193.118C371.703 192.425 371.532 191.621 371.519 190.705V189.775C371.519 188.837 371.685 188.009 372.018 187.294C372.35 186.578 372.826 186.027 373.446 185.64C374.071 185.252 374.791 185.059 375.606 185.059C376.705 185.059 377.589 185.357 378.259 185.954C378.929 186.551 379.318 187.394 379.428 188.483H377.705C377.623 187.768 377.413 187.253 377.076 186.938C376.743 186.619 376.254 186.46 375.606 186.46C374.854 186.46 374.276 186.736 373.87 187.287C373.469 187.834 373.264 188.638 373.255 189.7V190.582C373.255 191.658 373.446 192.478 373.829 193.043C374.216 193.608 374.782 193.891 375.524 193.891C376.203 193.891 376.714 193.738 377.056 193.433C377.397 193.127 377.614 192.619 377.705 191.908H379.428ZM389.824 191.908C389.724 192.97 389.332 193.799 388.648 194.396C387.965 194.989 387.056 195.285 385.921 195.285C385.128 195.285 384.428 195.098 383.822 194.725C383.221 194.346 382.756 193.811 382.428 193.118C382.1 192.425 381.929 191.621 381.915 190.705V189.775C381.915 188.837 382.081 188.009 382.414 187.294C382.747 186.578 383.223 186.027 383.843 185.64C384.467 185.252 385.187 185.059 386.003 185.059C387.101 185.059 387.985 185.357 388.655 185.954C389.325 186.551 389.715 187.394 389.824 188.483H388.102C388.02 187.768 387.81 187.253 387.473 186.938C387.14 186.619 386.65 186.46 386.003 186.46C385.251 186.46 384.672 186.736 384.267 187.287C383.866 187.834 383.66 188.638 383.651 189.7V190.582C383.651 191.658 383.843 192.478 384.226 193.043C384.613 193.608 385.178 193.891 385.921 193.891C386.6 193.891 387.11 193.738 387.452 193.433C387.794 193.127 388.01 192.619 388.102 191.908H389.824ZM398.443 190.705H394.355V193.768H399.134V195.148H392.626V185.195H399.086V186.59H394.355V189.338H398.443V190.705ZM409.688 195.148H407.958L403.521 188.087V195.148H401.792V185.195H403.521L407.972 192.284V185.195H409.688V195.148ZM419.968 186.59H416.864V195.148H415.148V186.59H412.072V185.195H419.968V186.59ZM434.8 190.432C434.8 191.407 434.631 192.264 434.294 193.002C433.957 193.736 433.474 194.301 432.845 194.697C432.22 195.089 431.5 195.285 430.685 195.285C429.878 195.285 429.158 195.089 428.524 194.697C427.896 194.301 427.408 193.738 427.062 193.009C426.72 192.28 426.547 191.439 426.542 190.486V189.926C426.542 188.955 426.713 188.098 427.055 187.355C427.401 186.613 427.886 186.045 428.511 185.653C429.14 185.257 429.86 185.059 430.671 185.059C431.482 185.059 432.2 185.255 432.824 185.646C433.453 186.034 433.938 186.594 434.28 187.328C434.622 188.057 434.795 188.907 434.8 189.878V190.432ZM433.07 189.912C433.07 188.809 432.861 187.964 432.441 187.376C432.027 186.788 431.437 186.494 430.671 186.494C429.924 186.494 429.338 186.788 428.914 187.376C428.495 187.959 428.281 188.786 428.271 189.857V190.432C428.271 191.525 428.483 192.371 428.907 192.968C429.336 193.565 429.928 193.863 430.685 193.863C431.45 193.863 432.038 193.572 432.448 192.988C432.863 192.405 433.07 191.553 433.07 190.432V189.912ZM445.668 195.148H443.938L439.502 188.087V195.148H437.772V185.195H439.502L443.952 192.284V185.195H445.668V195.148ZM450.691 193.768H455.21V195.148H448.962V185.195H450.691V193.768ZM459.119 189.912L461.409 185.195H463.323L459.987 191.484V195.148H458.251V191.484L454.908 185.195H456.829L459.119 189.912ZM388.819 211.148H387.09L382.653 204.087V211.148H380.924V201.195H382.653L387.104 208.284V201.195H388.819V211.148ZM400.057 206.432C400.057 207.407 399.888 208.264 399.551 209.002C399.214 209.736 398.73 210.301 398.102 210.697C397.477 211.089 396.757 211.285 395.941 211.285C395.135 211.285 394.415 211.089 393.781 210.697C393.152 210.301 392.665 209.738 392.318 209.009C391.977 208.28 391.803 207.439 391.799 206.486V205.926C391.799 204.955 391.97 204.098 392.312 203.355C392.658 202.613 393.143 202.045 393.768 201.653C394.396 201.257 395.117 201.059 395.928 201.059C396.739 201.059 397.457 201.255 398.081 201.646C398.71 202.034 399.195 202.594 399.537 203.328C399.879 204.057 400.052 204.907 400.057 205.878V206.432ZM398.327 205.912C398.327 204.809 398.118 203.964 397.698 203.376C397.284 202.788 396.693 202.494 395.928 202.494C395.18 202.494 394.595 202.788 394.171 203.376C393.752 203.959 393.537 204.786 393.528 205.857V206.432C393.528 207.525 393.74 208.371 394.164 208.968C394.592 209.565 395.185 209.863 395.941 209.863C396.707 209.863 397.295 209.572 397.705 208.988C398.12 208.405 398.327 207.553 398.327 206.432V205.912ZM414.547 202.59H411.443V211.148H409.728V202.59H406.651V201.195H414.547V202.59ZM422.927 206.705H418.839V209.768H423.617V211.148H417.109V201.195H423.569V202.59H418.839V205.338H422.927V206.705ZM429.7 204.791L431.792 201.195H433.788L430.78 206.131L433.856 211.148H431.84L429.7 207.498L427.554 211.148H425.544L428.627 206.131L425.612 201.195H427.608L429.7 204.791ZM443.576 202.59H440.473V211.148H438.757V202.59H435.681V201.195H443.576V202.59Z" fill="#B60B29"/>
<circle cx="188.734" cy="211.469" r="97.7344" fill="#03DAC5"/>
<ellipse cx="189.277" cy="211.469" rx="54.8398" ry="57.5547" fill="white"/>
<path d="M183.729 219.781H182.276V210.148L179.362 211.219V209.906L183.502 208.352H183.729V219.781ZM188.293 219.023C188.293 218.773 188.366 218.565 188.512 218.398C188.663 218.232 188.887 218.148 189.184 218.148C189.48 218.148 189.704 218.232 189.855 218.398C190.012 218.565 190.09 218.773 190.09 219.023C190.09 219.263 190.012 219.464 189.855 219.625C189.704 219.786 189.48 219.867 189.184 219.867C188.887 219.867 188.663 219.786 188.512 219.625C188.366 219.464 188.293 219.263 188.293 219.023ZM199.826 209.219L195.115 219.781H193.599L198.295 209.594H192.138V208.406H199.826V209.219Z" fill="#B60B29"/>
<path d="M145.449 183.058H141.594L140.787 185.375H138.989L142.749 175.422H144.301L148.067 185.375H146.263L145.449 183.058ZM142.079 181.663H144.964L143.521 177.534L142.079 181.663ZM157.896 182.135C157.796 183.197 157.404 184.026 156.721 184.623C156.037 185.215 155.128 185.512 153.993 185.512C153.2 185.512 152.501 185.325 151.895 184.951C151.293 184.573 150.828 184.037 150.5 183.345C150.172 182.652 150.001 181.848 149.987 180.932V180.002C149.987 179.063 150.154 178.236 150.486 177.521C150.819 176.805 151.295 176.254 151.915 175.866C152.539 175.479 153.259 175.285 154.075 175.285C155.174 175.285 156.058 175.584 156.728 176.181C157.397 176.778 157.787 177.621 157.896 178.71H156.174C156.092 177.994 155.882 177.479 155.545 177.165C155.212 176.846 154.722 176.687 154.075 176.687C153.323 176.687 152.744 176.962 152.339 177.514C151.938 178.061 151.733 178.865 151.724 179.927V180.809C151.724 181.884 151.915 182.704 152.298 183.27C152.685 183.835 153.25 184.117 153.993 184.117C154.672 184.117 155.183 183.965 155.524 183.659C155.866 183.354 156.083 182.846 156.174 182.135H157.896ZM168.293 182.135C168.193 183.197 167.801 184.026 167.117 184.623C166.434 185.215 165.524 185.512 164.39 185.512C163.597 185.512 162.897 185.325 162.291 184.951C161.689 184.573 161.225 184.037 160.896 183.345C160.568 182.652 160.397 181.848 160.384 180.932V180.002C160.384 179.063 160.55 178.236 160.883 177.521C161.215 176.805 161.692 176.254 162.312 175.866C162.936 175.479 163.656 175.285 164.472 175.285C165.57 175.285 166.454 175.584 167.124 176.181C167.794 176.778 168.184 177.621 168.293 178.71H166.57C166.488 177.994 166.279 177.479 165.941 177.165C165.609 176.846 165.119 176.687 164.472 176.687C163.72 176.687 163.141 176.962 162.735 177.514C162.334 178.061 162.129 178.865 162.12 179.927V180.809C162.12 181.884 162.312 182.704 162.694 183.27C163.082 183.835 163.647 184.117 164.39 184.117C165.069 184.117 165.579 183.965 165.921 183.659C166.263 183.354 166.479 182.846 166.57 182.135H168.293ZM176.912 180.932H172.824V183.994H177.603V185.375H171.095V175.422H177.555V176.816H172.824V179.564H176.912V180.932ZM188.156 185.375H186.427L181.99 178.313V185.375H180.261V175.422H181.99L186.44 182.511V175.422H188.156V185.375ZM198.437 176.816H195.333V185.375H193.617V176.816H190.541V175.422H198.437V176.816ZM213.269 180.658C213.269 181.633 213.1 182.49 212.763 183.229C212.425 183.962 211.942 184.527 211.313 184.924C210.689 185.316 209.969 185.512 209.153 185.512C208.347 185.512 207.627 185.316 206.993 184.924C206.364 184.527 205.877 183.965 205.53 183.235C205.188 182.506 205.015 181.665 205.011 180.713V180.152C205.011 179.182 205.182 178.325 205.523 177.582C205.87 176.839 206.355 176.272 206.979 175.88C207.608 175.483 208.328 175.285 209.14 175.285C209.951 175.285 210.669 175.481 211.293 175.873C211.922 176.26 212.407 176.821 212.749 177.555C213.091 178.284 213.264 179.134 213.269 180.104V180.658ZM211.539 180.139C211.539 179.036 211.329 178.19 210.91 177.603C210.495 177.015 209.905 176.721 209.14 176.721C208.392 176.721 207.807 177.015 207.383 177.603C206.964 178.186 206.749 179.013 206.74 180.084V180.658C206.74 181.752 206.952 182.597 207.376 183.194C207.804 183.791 208.397 184.09 209.153 184.09C209.919 184.09 210.507 183.798 210.917 183.215C211.332 182.632 211.539 181.779 211.539 180.658V180.139ZM224.137 185.375H222.407L217.971 178.313V185.375H216.241V175.422H217.971L222.421 182.511V175.422H224.137V185.375ZM229.16 183.994H233.679V185.375H227.431V175.422H229.16V183.994ZM237.588 180.139L239.878 175.422H241.792L238.456 181.711V185.375H236.72V181.711L233.377 175.422H235.298L237.588 180.139ZM167.288 201.375H165.559L161.122 194.313V201.375H159.393V191.422H161.122L165.572 198.511V191.422H167.288V201.375ZM178.525 196.658C178.525 197.633 178.357 198.49 178.02 199.229C177.682 199.962 177.199 200.527 176.57 200.924C175.946 201.316 175.226 201.512 174.41 201.512C173.604 201.512 172.883 201.316 172.25 200.924C171.621 200.527 171.133 199.965 170.787 199.235C170.445 198.506 170.272 197.665 170.268 196.713V196.152C170.268 195.182 170.438 194.325 170.78 193.582C171.127 192.839 171.612 192.272 172.236 191.88C172.865 191.483 173.585 191.285 174.396 191.285C175.208 191.285 175.925 191.481 176.55 191.873C177.179 192.26 177.664 192.821 178.006 193.555C178.348 194.284 178.521 195.134 178.525 196.104V196.658ZM176.796 196.139C176.796 195.036 176.586 194.19 176.167 193.603C175.752 193.015 175.162 192.721 174.396 192.721C173.649 192.721 173.063 193.015 172.64 193.603C172.22 194.186 172.006 195.013 171.997 196.084V196.658C171.997 197.752 172.209 198.597 172.633 199.194C173.061 199.791 173.654 200.09 174.41 200.09C175.176 200.09 175.764 199.798 176.174 199.215C176.589 198.632 176.796 197.779 176.796 196.658V196.139ZM193.016 192.816H189.912V201.375H188.196V192.816H185.12V191.422H193.016V192.816ZM201.396 196.932H197.308V199.994H202.086V201.375H195.578V191.422H202.038V192.816H197.308V195.564H201.396V196.932ZM208.169 195.018L210.261 191.422H212.257L209.249 196.357L212.325 201.375H210.309L208.169 197.725L206.022 201.375H204.013L207.096 196.357L204.081 191.422H206.077L208.169 195.018ZM222.045 192.816H218.941V201.375H217.226V192.816H214.149V191.422H222.045V192.816Z" fill="#B60B29"/>
<defs>
<filter id="filter0_ddd" x="224" y="478.862" width="145" height="68" filterUnits="userSpaceOnUse" color-interpolation-filters="sRGB">
<feFlood flood-opacity="0" result="BackgroundImageFix"/>
<feColorMatrix in="SourceAlpha" type="matrix" values="0 0 0 0 0 0 0 0 0 0 0 0 0 0 0 0 0 0 127 0"/>
<feOffset dy="2"/>
<feGaussianBlur stdDeviation="2"/>
<feColorMatrix type="matrix" values="0 0 0 0 0 0 0 0 0 0 0 0 0 0 0 0 0 0 0.2 0"/>
<feBlend mode="normal" in2="BackgroundImageFix" result="effect1_dropShadow"/>
<feColorMatrix in="SourceAlpha" type="matrix" values="0 0 0 0 0 0 0 0 0 0 0 0 0 0 0 0 0 0 127 0"/>
<feOffset dy="1"/>
<feGaussianBlur stdDeviation="5"/>
<feColorMatrix type="matrix" values="0 0 0 0 0 0 0 0 0 0 0 0 0 0 0 0 0 0 0.12 0"/>
<feBlend mode="normal" in2="effect1_dropShadow" result="effect2_dropShadow"/>
<feColorMatrix in="SourceAlpha" type="matrix" values="0 0 0 0 0 0 0 0 0 0 0 0 0 0 0 0 0 0 127 0"/>
<feOffset dy="4"/>
<feGaussianBlur stdDeviation="2.5"/>
<feColorMatrix type="matrix" values="0 0 0 0 0 0 0 0 0 0 0 0 0 0 0 0 0 0 0.14 0"/>
<feBlend mode="normal" in2="effect2_dropShadow" result="effect3_dropShadow"/>
<feBlend mode="normal" in="SourceGraphic" in2="effect3_dropShadow" result="shape"/>
</filter>
</defs>
</svg>
